<svg xmlns="http://www.w3.org/2000/svg" version="1.1" xmlns:xlink="http://www.w3.org/1999/xlink" xmlns:svgjs="http://svgjs.com/svgjs" width="500" height="300" transform="matrix(1,0,0,1,0,0)">
  <text font-family="DM Sans" font-size="260" text-anchor="left" x="310" charspacing="20px">
    <tspan dy="20.8" x="310"/>
  </text>
  <path transform="matrix(1,0,0,1,50,50)" d="M50,100L75,100A24.999999999999996,24.999999999999996,90,0,1,100,125L100,150L50,150ZM150,75A24.999999999999996,24.999999999999996,90,0,1,175,50L175,50A24.999999999999996,24.999999999999996,90,0,1,200,75L200,75A25.000000000000007,25.000000000000007,-270,0,1,175,100L175,100A24.999999999999996,24.999999999999996,90,0,1,150,75ZM150,175A24.999999999999996,24.999999999999996,90,0,1,175,150L175,150A24.999999999999996,24.999999999999996,90,0,1,200,175L200,175A25.000000000000007,25.000000000000007,-270,0,1,175,200L175,200A24.999999999999996,24.999999999999996,90,0,1,150,175ZM50,150L100,150L100,175A25.000000000000007,25.000000000000007,-270,0,1,75,200L75,200A24.999999999999996,24.999999999999996,90,0,1,50,175ZM0,125A24.999999999999996,24.999999999999996,90,0,1,25,100L50,100L50,150L25,150A24.999999999999996,24.999999999999996,90,0,1,0,125ZM0,25A24.999999999999996,24.999999999999996,90,0,1,25,0L25,0A24.999999999999996,24.999999999999996,90,0,1,50,25L50,25A25.000000000000007,25.000000000000007,-270,0,1,25,50L25,50A24.999999999999996,24.999999999999996,90,0,1,0,25Z"/>
</svg>