<?xml version="1.0" encoding="utf-8"?>
<!-- Generator: Adobe Illustrator 27.6.1, SVG Export Plug-In . SVG Version: 6.00 Build 0)  -->
<svg version="1.1" id="Layer_1" xmlns="http://www.w3.org/2000/svg" xmlns:xlink="http://www.w3.org/1999/xlink" x="0px" y="0px"
	 viewBox="0 0 1920 1080" style="enable-background:new 0 0 1920 1080;" xml:space="preserve">
<style type="text/css">
	.st0{clip-path:url(#SVGID_00000034074715939186631530000003959108259506646400_);fill:#EDF4FC;}
	.st1{display:none;}
	.st2{display:inline;}
	.st3{display:inline;clip-path:url(#SVGID_00000125604126056927094920000002497573021295287226_);fill:#EDF4FC;}
	
		.st4{opacity:0.6;clip-path:url(#SVGID_00000004538287453100100970000009056927353839548321_);fill:#D9E2EF;enable-background:new    ;}
</style>
<g>
	<g>
		<defs>
			<path id="SVGID_1_" d="M1909.02,1080H10.98C4.94,1080,0,1075.06,0,1069.02V10.98C0,4.94,4.94,0,10.98,0h1898.03
				c6.04,0,10.98,4.94,10.98,10.98v1058.03C1920,1075.06,1915.06,1080,1909.02,1080z"/>
		</defs>
		<clipPath id="SVGID_00000180347178553706760640000015357365963304687011_">
			<use xlink:href="#SVGID_1_"  style="overflow:visible;"/>
		</clipPath>
		<path style="clip-path:url(#SVGID_00000180347178553706760640000015357365963304687011_);fill:#EDF4FC;" d="M1292.13,51.81
			c-17.26,62.8,4.83,133.12-20.41,193.15c-23.98,57.05-84,89.29-141.3,112.66s-119.24,44.41-159.03,91.81
			c-51.01,60.77-49.04,159.35,4.36,218.03c34.68,38.12,87.44,60.7,109.88,107.09c19.42,40.14,11.1,88.7,26.72,130.46
			c26.21,70.1,113.5,100.01,187.44,88.46s138.81-53.68,204.51-89.5s139.83-66.89,213.46-53.49c68.47,12.47,129.49,62.46,198.95,58
			c45.05-2.89,86.25-29.39,114.91-64.27s46.17-77.56,59.58-120.67c71.6-230.03,31.72-492.05-105.09-690.35
			c-27.09-39.27-58.98-77.14-101.52-98.71c-43.09-21.85-93.11-25-141.42-24.16c-50.73,0.89-101.39,5.74-151.38,14.44
			c-42.34,7.37-78.76,20.5-121.16,13.85C1394.29-73.36,1312.92-23.85,1292.13,51.81z"/>
	</g>
	<g class="st1">
		<defs>
			<path id="SVGID_00000119113200243634827740000007532953193080624059_" d="M1909.02,1080H10.98C4.94,1080,0,1075.06,0,1069.02
				V10.98C0,4.94,4.94,0,10.98,0h1898.03c6.04,0,10.98,4.94,10.98,10.98v1058.03C1920,1075.06,1915.06,1080,1909.02,1080z"/>
		</defs>
		<clipPath id="SVGID_00000042738753882097707090000007609727375036755596_" class="st2">
			<use xlink:href="#SVGID_00000119113200243634827740000007532953193080624059_"  style="overflow:visible;"/>
		</clipPath>
		<path style="display:inline;clip-path:url(#SVGID_00000042738753882097707090000007609727375036755596_);fill:#EDF4FC;" d="
			M735.78,1059.12c31,24.02,52.97,61.89,47.31,98.85c-5.22,34.07-32.79,61.42-64.84,76.73c-52.18,24.93-117.89,28.43-175.52,34.95
			c-63.95,7.23-131.64,11.42-195.47-3.77c-61.76-14.7-99.48-60.97-115.85-117.98c-23.94-83.36-2.85-266.08,127.44-242.59
			c62.4,11.25,111.85,60.32,170.52,81.83C597.55,1012.14,676.65,1013.31,735.78,1059.12z"/>
	</g>
	<g>
		<defs>
			<path id="SVGID_00000177447166213630036510000007730042041699130519_" d="M1909.02,1080H10.98C4.94,1080,0,1075.06,0,1069.02
				V10.98C0,4.94,4.94,0,10.98,0h1898.03c6.04,0,10.98,4.94,10.98,10.98v1058.03C1920,1075.06,1915.06,1080,1909.02,1080z"/>
		</defs>
		<clipPath id="SVGID_00000150818848232225911330000000784130111769476228_">
			<use xlink:href="#SVGID_00000177447166213630036510000007730042041699130519_"  style="overflow:visible;"/>
		</clipPath>
		
			<path style="opacity:0.6;clip-path:url(#SVGID_00000150818848232225911330000000784130111769476228_);fill:#D9E2EF;enable-background:new    ;" d="
			M1629.16,286.54c-100.36,2.21-123.2,5.58-190.49,79.8c-72.75,59.04-207.44,27.8-266.94,106.46
			c-19.95,27.64-21.45,62.29-37.77,91.65c-60.2,87.24-208.94,143.92-66.98,247.56c71.39,42.56,173.69,35.59,239.69,88.2
			c30.82,24.82,48.37,60.04,75.7,87.9c64.81,66.08,175.47-63.56,274.17-51.36c147.04,18.17,164.26,332.18,316.44,266.5
			c28.79-12.43-11.43-391-2.27-418.38c65.2-195.7,78-409.39-2.62-600.14c-37.61-88.9-82.91-35.72-126.65,14.84
			C1783.81,248.57,1707.67,280.98,1629.16,286.54z"/>
	</g>
</g>
</svg>
