<?xml version="1.0" encoding="utf-8"?>
<!-- Generator: Adobe Illustrator 27.6.1, SVG Export Plug-In . SVG Version: 6.00 Build 0)  -->
<svg version="1.1" id="Layer_1" xmlns="http://www.w3.org/2000/svg" xmlns:xlink="http://www.w3.org/1999/xlink" x="0px" y="0px"
	 viewBox="0 0 1920 1080" style="enable-background:new 0 0 1920 1080;" xml:space="preserve">
<style type="text/css">
	.st0{fill:url(#SVGID_1_);}
	.st1{fill:#C0DDDC;}
	.st2{fill:url(#SVGID_00000068661081510071562520000006437075810894587833_);}
	.st3{fill:url(#SVGID_00000088835479287807511990000011362758500556229042_);}
	.st4{fill:url(#SVGID_00000056385926298973541770000012592846434717992834_);}
	.st5{fill:#B8C4D1;}
	.st6{fill:url(#SVGID_00000129204982650286016500000017760926157538128023_);}
	.st7{fill:#D9E2EF;}
	.st8{clip-path:url(#SVGID_00000020373396090534615150000004161335249572736175_);fill:#EDF4FC;}
	.st9{fill:url(#SVGID_00000152246661907046078400000013286340102413481901_);}
	.st10{fill:url(#SVGID_00000136372399092470533100000008431303891432448703_);}
	.st11{fill:url(#SVGID_00000036240829127963123150000013550990329863337628_);}
	.st12{fill:url(#SVGID_00000121967747806875349370000013477756885367144583_);}
	.st13{fill:url(#SVGID_00000047045202678713974680000009435055645155346061_);}
	.st14{fill:url(#SVGID_00000178186138445125322270000002290725862082941609_);}
	.st15{fill:url(#SVGID_00000059301348479440009250000011673051885785495726_);}
	.st16{fill:url(#SVGID_00000163043350181726133560000009535426584341797776_);}
	.st17{fill:url(#SVGID_00000081608732246299783270000014778330405355212473_);}
	.st18{fill:url(#SVGID_00000153704385163245488890000011676259928767948975_);}
	.st19{fill:url(#SVGID_00000147203438230531554810000015335050117583581058_);}
	.st20{fill:url(#SVGID_00000000211726550634646650000006136913858984588455_);}
	.st21{fill:url(#SVGID_00000000927503359400081840000012504464758075645864_);}
	.st22{fill:url(#SVGID_00000072242843840165842390000017859516280096846733_);}
	.st23{fill:url(#SVGID_00000040562867442145113290000015329703161137225857_);}
	.st24{fill:url(#SVGID_00000078766854528291830560000001016498772039649678_);}
	.st25{fill:url(#SVGID_00000113352761662202752840000012253205856126334123_);}
	.st26{fill:url(#SVGID_00000130649100015463206460000004237230392336885163_);}
	.st27{fill:url(#SVGID_00000093892216964266677800000008831715887505519240_);}
	.st28{fill:url(#SVGID_00000040535691399596355290000011184137976431430532_);}
	.st29{fill:url(#SVGID_00000139987945856547933010000006419875723787871114_);}
	.st30{fill:url(#SVGID_00000168825307265144680100000007178163161949175182_);}
	.st31{fill:url(#SVGID_00000116224410417858975510000000397029389836171706_);}
	.st32{fill:url(#SVGID_00000127746926015748968180000013434051895154708404_);}
	.st33{display:none;fill:url(#SVGID_00000159446815474550404560000011624519429391462549_);}
	.st34{display:none;fill:url(#SVGID_00000038397267331388508870000016806523380137434017_);}
	.st35{display:none;fill:url(#SVGID_00000119080034094482759620000001551971378146520212_);}
	.st36{display:none;fill:url(#SVGID_00000108988553353144169560000000305004464393761977_);}
	.st37{display:none;}
	.st38{display:inline;}
	.st39{fill:url(#SVGID_00000080186610660133711610000008004549982627284143_);}
	.st40{fill:url(#SVGID_00000057129026728060190350000006934096919595987114_);}
	.st41{fill:url(#SVGID_00000033371179864132965520000010915268289939078076_);}
	.st42{fill:url(#SVGID_00000006696015851954442060000007999449581343727536_);}
</style>
<g>
	<g>
		<g>
			<linearGradient id="SVGID_1_" gradientUnits="userSpaceOnUse" x1="530.6597" y1="374.5365" x2="537.1832" y2="652.1569">
				<stop  offset="0" style="stop-color:#C1E0BA"/>
				<stop  offset="1" style="stop-color:#39A1A2"/>
			</linearGradient>
			<path class="st0" d="M619.24,546.21c42.34,113.4-7.16,236.61-7.16,236.61s-118.13-60.63-160.47-174.03
				c-42.34-113.4,7.16-236.61,7.16-236.61S576.91,432.81,619.24,546.21z"/>
			<path class="st1" d="M607.13,549.86c0.36-1.09-0.25-2.27-1.34-2.62c-1.09-0.35-2.27,0.25-2.62,1.34l-35.68,110.72l-28.93-76.56
				l31.06-111.53c0.31-1.11-0.34-2.26-1.45-2.56c-1.1-0.3-2.25,0.33-2.56,1.45l-29.54,106.06l-33.2-87.86l14.12-50.44
				c0.31-1.11-0.34-2.26-1.44-2.57c-1.11-0.31-2.26,0.33-2.57,1.44l-12.59,44.98l-36.2-95.78c-0.41-1.08-1.59-1.69-2.69-1.22
				c-1.08,0.41-1.62,1.61-1.22,2.69l35.81,94.76l-35.44-27.67c-0.92-0.71-2.22-0.54-2.93,0.36c-0.71,0.9-0.54,2.22,0.36,2.93
				l40.84,31.89l33.23,87.93l-85.06-61.36c-0.93-0.67-2.23-0.46-2.91,0.47c-0.67,0.93-0.46,2.24,0.47,2.91l90.18,65.05l28.71,75.97
				l-103.7-63.59c-0.98-0.6-2.27-0.29-2.87,0.69c-0.6,0.98-0.29,2.27,0.69,2.87L565.95,667l20.32,53.78l-53.15-31.24
				c-0.99-0.59-2.28-0.25-2.86,0.74c-0.59,0.99-0.25,2.27,0.74,2.86L588.62,727l16.27,43.05c0.4,1.06,1.56,1.6,2.62,1.24
				c0.02-0.01,0.05-0.02,0.07-0.02c1.08-0.41,1.62-1.61,1.22-2.69l-16.21-42.9l32.26-65.38c0.51-1.03,0.08-2.28-0.95-2.79
				c-1.03-0.51-2.28-0.08-2.79,0.95l-30.53,61.88l-20.71-54.81L607.13,549.86z"/>
		</g>
		<g>
			
				<linearGradient id="SVGID_00000124878459862223342540000015347821809781458325_" gradientUnits="userSpaceOnUse" x1="2042.4081" y1="744.1793" x2="2042.4081" y2="1189.8724" gradientTransform="matrix(0.516 -0.8566 0.8566 0.516 -1467.6797 1937.8583)">
				<stop  offset="0" style="stop-color:#C1E0BA"/>
				<stop  offset="1" style="stop-color:#39A1A2"/>
			</linearGradient>
			<path style="fill:url(#SVGID_00000124878459862223342540000015347821809781458325_);" d="M464.7,613.08
				C568.38,675.54,606.26,802.8,606.26,802.8s-130.22,26-233.9-36.46C268.68,703.89,230.8,576.62,230.8,576.62
				S361.02,550.62,464.7,613.08z"/>
			<path class="st1" d="M457.48,623.47c-0.4-1.08-1.61-1.62-2.68-1.22c-1.07,0.41-1.62,1.61-1.22,2.68l40.93,108.88l-70.27-41.95
				l-45.05-106.65c-0.45-1.06-1.67-1.56-2.73-1.11c-1.05,0.45-1.56,1.66-1.11,2.73l42.84,101.42l-80.64-48.14l-20.32-48.28
				c-0.45-1.06-1.67-1.56-2.73-1.11c-1.06,0.45-1.56,1.66-1.11,2.73l18.12,43.06l-87.92-52.49c-0.99-0.59-2.29-0.33-2.86,0.72
				c-0.59,0.99-0.27,2.27,0.72,2.86l86.98,51.93l-44.96,0.38c-1.16,0.01-2.08,0.96-2.07,2.1c0.01,1.15,0.95,2.07,2.1,2.07
				l51.81-0.43l80.71,48.18l-104.77,4.86c-1.15,0.06-2.04,1.02-1.99,2.18c0.05,1.15,1.03,2.04,2.18,1.99l111.07-5.15l69.74,41.63
				L371.5,752.04c-1.14,0.14-1.96,1.18-1.81,2.32c0.14,1.14,1.18,1.96,2.32,1.81l126.09-15.36l49.36,29.47l-61.05,8.6
				c-1.14,0.16-1.94,1.22-1.78,2.35c0.16,1.14,1.22,1.94,2.35,1.78l66.18-9.32l39.52,23.59c0.97,0.58,2.22,0.28,2.82-0.66
				c0.01-0.02,0.03-0.04,0.04-0.06c0.59-0.99,0.27-2.27-0.72-2.86l-39.38-23.51l-15.41-71.26c-0.24-1.13-1.35-1.84-2.48-1.59
				c-1.13,0.24-1.84,1.35-1.59,2.48l14.58,67.45l-50.31-30.03L457.48,623.47z"/>
		</g>
		<g>
			
				<linearGradient id="SVGID_00000078727454277336413600000000377229739498884496_" gradientUnits="userSpaceOnUse" x1="759.6683" y1="374.5365" x2="766.192" y2="652.1569" gradientTransform="matrix(-1 0 0 1 2160.6086 0)">
				<stop  offset="0" style="stop-color:#C1E0BA"/>
				<stop  offset="1" style="stop-color:#39A1A2"/>
			</linearGradient>
			<path style="fill:url(#SVGID_00000078727454277336413600000000377229739498884496_);" d="M1312.36,546.21
				c-42.34,113.4,7.16,236.61,7.16,236.61s118.13-60.63,160.47-174.03c42.34-113.4-7.16-236.61-7.16-236.61
				S1354.69,432.81,1312.36,546.21z"/>
			<path class="st1" d="M1324.47,549.86c-0.36-1.09,0.25-2.27,1.34-2.62s2.27,0.25,2.62,1.34l35.68,110.72l28.93-76.56
				l-31.06-111.53c-0.31-1.11,0.34-2.26,1.45-2.56c1.1-0.3,2.25,0.33,2.56,1.45l29.54,106.06l33.2-87.86l-14.12-50.44
				c-0.31-1.11,0.34-2.26,1.44-2.57c1.11-0.31,2.26,0.33,2.57,1.44l12.59,44.98l36.2-95.78c0.41-1.08,1.59-1.69,2.69-1.22
				c1.08,0.41,1.62,1.61,1.22,2.69l-35.81,94.76l35.44-27.67c0.92-0.71,2.22-0.54,2.93,0.36c0.71,0.9,0.54,2.22-0.36,2.93
				l-40.84,31.89l-33.23,87.93l85.06-61.36c0.93-0.67,2.23-0.46,2.91,0.47c0.67,0.93,0.46,2.24-0.47,2.91l-90.18,65.05l-28.71,75.97
				l103.7-63.59c0.98-0.6,2.27-0.29,2.87,0.69c0.6,0.98,0.29,2.27-0.69,2.87L1365.65,667l-20.32,53.78l53.15-31.24
				c0.99-0.59,2.28-0.25,2.86,0.74c0.59,0.99,0.25,2.27-0.74,2.86L1342.98,727l-16.27,43.05c-0.4,1.06-1.56,1.6-2.62,1.24
				c-0.02-0.01-0.05-0.02-0.07-0.02c-1.08-0.41-1.62-1.61-1.22-2.69l16.21-42.9l-32.26-65.38c-0.51-1.03-0.08-2.28,0.95-2.79
				c1.03-0.51,2.28-0.08,2.79,0.95l30.53,61.88l20.71-54.81L1324.47,549.86z"/>
		</g>
		<g>
			
				<linearGradient id="SVGID_00000168079920688522708420000009555989351185965188_" gradientUnits="userSpaceOnUse" x1="2160.5742" y1="940.3443" x2="2160.5742" y2="1386.0375" gradientTransform="matrix(-0.516 -0.8566 -0.8566 0.516 3628.2883 1937.8583)">
				<stop  offset="0" style="stop-color:#C1E0BA"/>
				<stop  offset="1" style="stop-color:#39A1A2"/>
			</linearGradient>
			<path style="fill:url(#SVGID_00000168079920688522708420000009555989351185965188_);" d="M1466.9,613.08
				c-103.68,62.46-141.57,189.73-141.57,189.73s130.22,26,233.9-36.46c103.68-62.46,141.57-189.73,141.57-189.73
				S1570.58,550.62,1466.9,613.08z"/>
			<path class="st1" d="M1474.12,623.47c0.4-1.08,1.61-1.62,2.68-1.22c1.07,0.41,1.62,1.61,1.22,2.68l-40.93,108.88l70.27-41.95
				l45.05-106.65c0.45-1.06,1.67-1.56,2.73-1.11c1.05,0.45,1.56,1.66,1.11,2.73l-42.84,101.42l80.64-48.14l20.32-48.28
				c0.45-1.06,1.67-1.56,2.73-1.11c1.06,0.45,1.56,1.66,1.11,2.73l-18.12,43.06l87.92-52.49c0.99-0.59,2.29-0.33,2.86,0.72
				c0.59,0.99,0.27,2.27-0.72,2.86l-86.98,51.93l44.96,0.38c1.16,0.01,2.08,0.96,2.07,2.1c-0.01,1.15-0.95,2.07-2.1,2.07
				l-51.81-0.43l-80.71,48.18l104.77,4.86c1.15,0.06,2.04,1.02,1.99,2.18c-0.05,1.15-1.03,2.04-2.18,1.99l-111.07-5.15l-69.74,41.63
				l120.75,14.71c1.14,0.14,1.96,1.18,1.81,2.32c-0.14,1.14-1.18,1.96-2.32,1.81l-126.09-15.36l-49.36,29.47l61.05,8.6
				c1.14,0.16,1.94,1.22,1.78,2.35c-0.16,1.14-1.22,1.94-2.35,1.78l-66.18-9.32l-39.52,23.59c-0.97,0.58-2.22,0.28-2.82-0.66
				c-0.01-0.02-0.03-0.04-0.04-0.06c-0.59-0.99-0.27-2.27,0.72-2.86l39.38-23.51l15.41-71.26c0.24-1.13,1.35-1.84,2.48-1.59
				c1.13,0.24,1.84,1.35,1.59,2.48l-14.58,67.45l50.31-30.03L1474.12,623.47z"/>
		</g>
	</g>
	<path class="st5" d="M1226.1,812.93c0,4.3-172.61,7.79-385.53,7.79s-385.53-3.49-385.53-7.79c0-4.3,172.61-7.79,385.53-7.79
		S1226.1,808.62,1226.1,812.93z"/>
	<g>
		
			<linearGradient id="SVGID_00000083060884193396321960000011696554880246511773_" gradientUnits="userSpaceOnUse" x1="1063.8273" y1="503.1914" x2="1383.6648" y2="503.1914">
			<stop  offset="0" style="stop-color:#2C3E63"/>
			<stop  offset="1" style="stop-color:#13192E"/>
		</linearGradient>
		<path style="fill:url(#SVGID_00000083060884193396321960000011696554880246511773_);" d="M1379.51,811.97h-311.52
			c-2.29,0-4.16-1.87-4.16-4.16V198.57c0-2.29,1.87-4.16,4.16-4.16h311.52c2.29,0,4.16,1.87,4.16,4.16v609.23
			C1383.66,810.09,1381.79,811.97,1379.51,811.97z"/>
		<g>
			<path class="st7" d="M1076.55,798.09V208.3c0-0.64,0.52-1.16,1.16-1.16h292.08c0.64,0,1.16,0.52,1.16,1.16v589.79
				c0,0.64-0.52,1.16-1.16,1.16h-292.08C1077.07,799.24,1076.55,798.72,1076.55,798.09z"/>
			<g>
				<defs>
					<path id="SVGID_00000179641099486746996550000013919646351239261880_" d="M1076.55,798.09V208.3c0-0.64,0.52-1.16,1.16-1.16
						h292.08c0.64,0,1.16,0.52,1.16,1.16v589.79c0,0.64-0.52,1.16-1.16,1.16h-292.08C1077.07,799.24,1076.55,798.72,1076.55,798.09z
						"/>
				</defs>
				<clipPath id="SVGID_00000085250573677639969000000017678233733613790881_">
					<use xlink:href="#SVGID_00000179641099486746996550000013919646351239261880_"  style="overflow:visible;"/>
				</clipPath>
				<path style="clip-path:url(#SVGID_00000085250573677639969000000017678233733613790881_);fill:#EDF4FC;" d="M1362.45,360.29
					c-7.12-5.16-13.95-10.11-20.22-14.75c-14.28-10.57-28.84-18.59-43.54-24.09l-58.98-130.92l-12.62,5.68l54,119.88
					c-26.7-6.29-53.67-4.26-80.02,6.21l-67.73-151.74l-12.62,5.68l67.66,151.58l-64.64,29.12l-58.62-130.13l-5.16,44.69l42.75,94.91
					l-64.64,29.12l-42.75-94.91l-12.62,5.68l125.67,278.96l6.31-2.84c13.11-5.91,44.77-6.61,83.6-3.87l10.66,23.66
					c-17.19,12.84-52.91,43.87-56.04,81.67l-32.37,14.58L950.42,320.84l-8.41,3.79l170.11,377.61l-48.37,21.79L893.64,346.42
					l-8.41,3.79l226.66,501.21l8.41-3.79l-52.76-115.18l48.37-21.79l63.85,138.87l8.41-3.79l-63.85-138.86l28.54-12.85
					c0.7,8.99,3.37,18.3,8.67,27.77c17.93,32.08,44.33,34.35,63.85,25.56c0.71-0.32,1.4-0.65,2.09-1
					c13.55-6.83,25.04-19.79,30.48-35.36l55.69,114.47l21.03-9.47L1224.6,580.81c26.69,2.68,55.32,6.62,82.88,11.36l76.3,166.54
					l12.62-5.68l-72.4-157.9c36.86,6.89,70.54,15.08,93.36,23.39l12.9,28.63l12.62-5.68l-61.96-137.53
					c20.43,3.24,42.19,3.68,65.23-2.94c3.41-0.98,6.52-2.1,9.32-3.36c10.72-4.83,16.92-11.7,18.47-20.51
					C1479.11,447.53,1428.78,408.39,1362.45,360.29z M1212.81,610.8l17.26,38.3l-67.24,30.29
					C1168.13,648.52,1197.12,622.74,1212.81,610.8z M1223.31,738.1c-20.52,10.39-40.66,2.58-53.74-20.82
					c-5.21-9.32-7.47-18.51-7.59-27.38l71.87-32.38l17.88,39.69C1249.65,715.13,1237.87,730.77,1223.31,738.1z M1288.42,332.33
					l68.64,152.36c-5.57-1.43-11.04-2.93-16.37-4.4c-25.67-7.09-50.04-13.77-71.65-7.14l-62.28-138.24
					C1233.92,324.23,1261.24,323.37,1288.42,332.33z M1194.07,340.43l62.15,137.97l-64.64,29.12l-62.15-137.97L1194.07,340.43z
					 M1108.4,379.02l62.15,137.97l-64.64,29.12l-62.15-137.97L1108.4,379.02z M1115.54,567.48l-3.95-8.76l64.64-29.12l15.55,34.51
					C1159.28,562.23,1131.76,562.95,1115.54,567.48z M1217.97,566.1l-20.71-45.96l64.64-29.12l38.68,85.87
					C1272.97,572.29,1244.49,568.52,1217.97,566.1z M1409.6,601.32c-24.29-7.62-57.2-15.2-92.54-21.58l-42.28-93.86
					c17.42-4.6,38.38,1.17,62.24,7.75c8.76,2.42,17.86,4.91,27.25,7.05L1409.6,601.32z M1460.28,474.72
					c-0.96,5.45-7.01,9.82-17.97,12.97c-23.87,6.85-46.81,5.19-68.32,0.89l-66.91-148.54c9,4.46,17.98,9.99,26.93,16.61
					c6.31,4.67,13.17,9.64,20.33,14.83C1398.16,403.27,1464.4,451.3,1460.28,474.72z"/>
			</g>
		</g>
		<g>
			
				<linearGradient id="SVGID_00000054981029053484134130000016959350734929120394_" gradientUnits="userSpaceOnUse" x1="1214.3435" y1="224.3479" x2="1233.1498" y2="224.3479">
				<stop  offset="0" style="stop-color:#2C3E63"/>
				<stop  offset="1" style="stop-color:#13192E"/>
			</linearGradient>
			<circle style="fill:url(#SVGID_00000054981029053484134130000016959350734929120394_);" cx="1223.75" cy="224.35" r="9.4"/>
			
				<linearGradient id="SVGID_00000124122826889434184500000017380356502418875520_" gradientUnits="userSpaceOnUse" x1="1223.7467" y1="217.0882" x2="1223.7467" y2="231.2999">
				<stop  offset="0" style="stop-color:#2C3E63"/>
				<stop  offset="1" style="stop-color:#000000"/>
			</linearGradient>
			<circle style="fill:url(#SVGID_00000124122826889434184500000017380356502418875520_);" cx="1223.75" cy="224.35" r="7.36"/>
		</g>
		<g>
			
				<linearGradient id="SVGID_00000091736620828093585330000013369498508560498055_" gradientUnits="userSpaceOnUse" x1="1246.5443" y1="313.0745" x2="1246.5443" y2="448.5196">
				<stop  offset="0" style="stop-color:#1966FF"/>
				<stop  offset="1" style="stop-color:#1D41CF"/>
			</linearGradient>
			<path style="fill:url(#SVGID_00000091736620828093585330000013369498508560498055_);" d="M1246.54,315.6
				c-26.89,0-48.69,21.8-48.69,48.69c0,32.56,48.69,84.52,48.69,84.52s48.69-51.38,48.69-84.52
				C1295.23,337.4,1273.43,315.6,1246.54,315.6z M1246.54,395.46c-17.23,0-31.2-13.97-31.2-31.2c0-17.23,13.97-31.2,31.2-31.2
				s31.2,13.97,31.2,31.2C1277.75,381.49,1263.78,395.46,1246.54,395.46z"/>
		</g>
	</g>
	<g>
		
			<linearGradient id="SVGID_00000182492421833565096070000006260683599993854120_" gradientUnits="userSpaceOnUse" x1="834.313" y1="771.2343" x2="834.313" y2="741.7976">
			<stop  offset="0" style="stop-color:#2C3E63"/>
			<stop  offset="1" style="stop-color:#13192E"/>
		</linearGradient>
		
			<rect x="592.07" y="717.45" style="fill:url(#SVGID_00000182492421833565096070000006260683599993854120_);" width="484.49" height="51.8"/>
		<g>
			
				<linearGradient id="SVGID_00000045598990746034973270000017656885180771556499_" gradientUnits="userSpaceOnUse" x1="577.8267" y1="811.0987" x2="577.8267" y2="744.6094">
				<stop  offset="0" style="stop-color:#2C3E63"/>
				<stop  offset="1" style="stop-color:#13192E"/>
			</linearGradient>
			<path style="fill:url(#SVGID_00000045598990746034973270000017656885180771556499_);" d="M617.31,812.93h-78.97
				c-2.07,0-3.74-1.68-3.74-3.74v-100h86.46v100C621.06,811.25,619.38,812.93,617.31,812.93z"/>
			
				<linearGradient id="SVGID_00000138535095676456704930000007660636072677707420_" gradientUnits="userSpaceOnUse" x1="354.5723" y1="811.0987" x2="354.5723" y2="744.6094" gradientTransform="matrix(-1 0 0 1 1457.8451 0)">
				<stop  offset="0" style="stop-color:#2C3E63"/>
				<stop  offset="1" style="stop-color:#13192E"/>
			</linearGradient>
			<path style="fill:url(#SVGID_00000138535095676456704930000007660636072677707420_);" d="M1063.79,812.93h78.97
				c2.07,0,3.74-1.68,3.74-3.74v-100h-86.46v100C1060.04,811.25,1061.72,812.93,1063.79,812.93z"/>
		</g>
		
			<linearGradient id="SVGID_00000103251661328629012800000001633396385218807201_" gradientUnits="userSpaceOnUse" x1="579.7802" y1="469.9866" x2="578.8052" y2="507.3592">
			<stop  offset="0" style="stop-color:#F2B90F"/>
			<stop  offset="1" style="stop-color:#F27405"/>
		</linearGradient>
		<path style="fill:url(#SVGID_00000103251661328629012800000001633396385218807201_);" d="M605.61,510.18l-51.38-2.56
			c-9.94-0.49-17.74-8.69-17.74-18.64l0,0c0-10.31,8.36-18.66,18.66-18.66h16.64c9.4,0,17.92,5.53,21.75,14.12l4.32,9.69h24.09
			L605.61,510.18z"/>
		
			<linearGradient id="SVGID_00000052823800748313874490000011866882694347491762_" gradientUnits="userSpaceOnUse" x1="357.5048" y1="469.9866" x2="356.5299" y2="507.3592" gradientTransform="matrix(-1 0 0 1 1458.8243 0)">
			<stop  offset="0" style="stop-color:#F2B90F"/>
			<stop  offset="1" style="stop-color:#F27405"/>
		</linearGradient>
		<path style="fill:url(#SVGID_00000052823800748313874490000011866882694347491762_);" d="M1075.49,510.18l51.38-2.56
			c9.93-0.49,17.74-8.69,17.74-18.64l0,0c0-10.31-8.36-18.66-18.66-18.66h-16.64c-9.4,0-17.92,5.53-21.75,14.12l-4.32,9.69h-24.09
			L1075.49,510.18z"/>
		
			<linearGradient id="SVGID_00000180349739690179032910000016845023404552779414_" gradientUnits="userSpaceOnUse" x1="840.5669" y1="382.8665" x2="840.5669" y2="609.3139">
			<stop  offset="0" style="stop-color:#F2B90F"/>
			<stop  offset="0.5203" style="stop-color:#F27405"/>
			<stop  offset="1" style="stop-color:#F2B90F"/>
		</linearGradient>
		<path style="fill:url(#SVGID_00000180349739690179032910000016845023404552779414_);" d="M1155.53,604.15v100.07
			c0,6.35-1.47,12.65-4.22,18.39l-5.74,12.03c-7.09,14.72-21.93,24.07-38.3,24.07h-77.1c-5.25,0-10.45-0.98-15.33-2.87l-11.91-4.58
			c-11.73-4.58-24.19-6.9-36.78-6.9H714.99c-12.65,0-25.11,2.32-36.84,6.9l-11.91,4.58c-4.89,1.89-10.08,2.87-15.33,2.87h-77.1
			c-16.31,0-31.22-9.35-38.24-24.07l-5.8-12.03c-2.75-5.74-4.15-12.04-4.15-18.39V604.15c0-10.87,4.15-21.38,11.67-29.26
			l15.76-16.56c0-0.06,0-0.06,0.06-0.12l0.79-0.79l51.81-54.49c0,0,17.84-51.2,55.96-106.97c0,0,25.54-11.42,173.5-11.91v-0.06
			h10.75v0.06c148.03,0.49,173.56,11.91,173.56,11.91c38.12,55.78,55.96,106.97,55.96,106.97l56.02,58.95h0.06l12.34,13.01
			C1151.31,582.77,1155.53,593.27,1155.53,604.15z"/>
		
			<linearGradient id="SVGID_00000152979390425809970450000000412904732222240157_" gradientUnits="userSpaceOnUse" x1="529.1172" y1="658.5198" x2="1142.3032" y2="658.5198">
			<stop  offset="0" style="stop-color:#F27405"/>
			<stop  offset="0.0208" style="stop-color:#F27906"/>
			<stop  offset="0.1447" style="stop-color:#F2950A"/>
			<stop  offset="0.2694" style="stop-color:#F2A90D"/>
			<stop  offset="0.3944" style="stop-color:#F2B50E"/>
			<stop  offset="0.5203" style="stop-color:#F2B90F"/>
			<stop  offset="0.633" style="stop-color:#F2B50E"/>
			<stop  offset="0.7507" style="stop-color:#F2A80D"/>
			<stop  offset="0.8705" style="stop-color:#F2930A"/>
			<stop  offset="0.9913" style="stop-color:#F27605"/>
			<stop  offset="1" style="stop-color:#F27405"/>
		</linearGradient>
		<path style="fill:url(#SVGID_00000152979390425809970450000000412904732222240157_);" d="M1155.53,604.15v100.07
			c0,6.35-1.47,12.65-4.22,18.39l-5.74,12.03c-7.09,14.72-21.93,24.07-38.3,24.07h-77.1c-5.25,0-10.45-0.98-15.33-2.87l-11.91-4.58
			c-11.73-4.58-24.19-6.9-36.78-6.9H714.99c-12.65,0-25.11,2.32-36.84,6.9l-11.91,4.58c-4.89,1.89-10.08,2.87-15.33,2.87h-77.1
			c-16.31,0-31.22-9.35-38.24-24.07l-5.8-12.03c-2.75-5.74-4.15-12.04-4.15-18.39V604.15c0-10.87,4.15-21.38,11.67-29.26
			l15.76-16.56c-6.48,11.36,99.95,51.62,148.88,54.98c50.34,3.42,228.36,1.83,277.3,0c48.93-1.89,139.84-32.26,152.24-51.44h0.06
			l12.34,13.01C1151.31,582.77,1155.53,593.27,1155.53,604.15z"/>
		
			<linearGradient id="SVGID_00000054246171572503404560000014460545347960115090_" gradientUnits="userSpaceOnUse" x1="982.5205" y1="383.2518" x2="687.2108" y2="562.6808">
			<stop  offset="0" style="stop-color:#2C3E63"/>
			<stop  offset="1" style="stop-color:#13192E"/>
		</linearGradient>
		<path style="fill:url(#SVGID_00000054246171572503404560000014460545347960115090_);" d="M1060.84,502
			c-16.31-0.92-43.01-1.77-72.33-2.57c-10.57-0.24-21.57-0.55-32.5-0.8c-35.68-0.79-71.17-1.34-94.02-1.65
			c-9.77-0.12-17.23-0.18-21.44-0.18c-25.41,0-170.57,2.38-220.3,5.19c7.58-26.7,33.48-69.71,47.22-93.66
			c9.59-3.18,22.85-5.5,38.55-7.15c15.09-1.65,32.38-2.69,50.71-3.3c14.23-0.49,29.02-0.79,43.93-0.92
			c13.38-0.18,26.82-0.18,39.89-0.18c6.72,0,13.56,0,20.47,0.06c4.89,0,9.84,0,14.72,0.06c40.75,0.3,81.37,1.53,110.64,5.62
			c10.81,1.53,20.1,3.42,27.25,5.8c4.7,8.19,10.87,18.63,17.29,29.94c5.13,9.16,10.32,18.75,15.09,28.16
			c3.67,7.33,7.03,14.48,9.71,21.14C1057.84,492.72,1059.61,497.6,1060.84,502z"/>
		
			<linearGradient id="SVGID_00000151510615733746794810000008913236713608118966_" gradientUnits="userSpaceOnUse" x1="841.3679" y1="732.4072" x2="840.3316" y2="628.4279">
			<stop  offset="0" style="stop-color:#2C3E63"/>
			<stop  offset="1" style="stop-color:#13192E"/>
		</linearGradient>
		<path style="fill:url(#SVGID_00000151510615733746794810000008913236713608118966_);" d="M979.2,613.28
			c0,0-85.13,4.95-138.65,4.95c-60.82,0-138.65-4.95-138.65-4.95s-46.02,17.33-46.02,37.05c0,15.17,26.62,56.13,38.92,74.25
			c3.76,5.54,9.99,8.83,16.69,8.83h129.06h129.06c6.69,0,12.93-3.29,16.69-8.83c12.3-18.12,38.92-59.08,38.92-74.25
			C1025.22,630.62,979.2,613.28,979.2,613.28z"/>
		<g>
			<g>
				
					<linearGradient id="SVGID_00000006691191404511773480000009469735907874462094_" gradientUnits="userSpaceOnUse" x1="571.2361" y1="737.8472" x2="570.9116" y2="705.2888">
					<stop  offset="0" style="stop-color:#2C3E63"/>
					<stop  offset="1" style="stop-color:#13192E"/>
				</linearGradient>
				<path style="fill:url(#SVGID_00000006691191404511773480000009469735907874462094_);" d="M590.28,719.34
					c0,10.62-8.61,19.22-19.22,19.22c-10.62,0-19.22-8.61-19.22-19.22c0-10.62,8.61-19.22,19.22-19.22
					C581.67,700.11,590.28,708.72,590.28,719.34z"/>
				
					<linearGradient id="SVGID_00000075876131527377859070000005580482910879528620_" gradientUnits="userSpaceOnUse" x1="571.1716" y1="731.374" x2="570.9606" y2="710.2027">
					<stop  offset="0" style="stop-color:#EBEFF7"/>
					<stop  offset="1" style="stop-color:#B3B6C2"/>
				</linearGradient>
				<path style="fill:url(#SVGID_00000075876131527377859070000005580482910879528620_);" d="M583.55,719.34
					c0,6.9-5.6,12.5-12.5,12.5c-6.9,0-12.5-5.6-12.5-12.5c0-6.9,5.6-12.5,12.5-12.5C577.96,706.84,583.55,712.43,583.55,719.34z"/>
			</g>
			<g>
				
					<linearGradient id="SVGID_00000124122687342890017380000001395408968448636825_" gradientUnits="userSpaceOnUse" x1="348.9606" y1="737.8472" x2="348.6361" y2="705.2888" gradientTransform="matrix(-1 0 0 1 1458.8243 0)">
					<stop  offset="0" style="stop-color:#2C3E63"/>
					<stop  offset="1" style="stop-color:#13192E"/>
				</linearGradient>
				<path style="fill:url(#SVGID_00000124122687342890017380000001395408968448636825_);" d="M1090.82,719.34
					c0,10.62,8.61,19.22,19.22,19.22c10.62,0,19.22-8.61,19.22-19.22c0-10.62-8.61-19.22-19.22-19.22
					C1099.43,700.11,1090.82,708.72,1090.82,719.34z"/>
				
					<linearGradient id="SVGID_00000144324676541558159530000017592899416320093884_" gradientUnits="userSpaceOnUse" x1="348.8961" y1="731.374" x2="348.6851" y2="710.2027" gradientTransform="matrix(-1 0 0 1 1458.8243 0)">
					<stop  offset="0" style="stop-color:#EBEFF7"/>
					<stop  offset="1" style="stop-color:#B3B6C2"/>
				</linearGradient>
				<path style="fill:url(#SVGID_00000144324676541558159530000017592899416320093884_);" d="M1097.55,719.34
					c0,6.9,5.6,12.5,12.5,12.5c6.9,0,12.5-5.6,12.5-12.5c0-6.9-5.6-12.5-12.5-12.5C1103.14,706.84,1097.55,712.43,1097.55,719.34z"
					/>
			</g>
		</g>
		<g>
			<g>
				
					<linearGradient id="SVGID_00000044896640664152269480000001609613118637965487_" gradientUnits="userSpaceOnUse" x1="608.012" y1="638.7571" x2="607.4144" y2="578.7938">
					<stop  offset="0" style="stop-color:#EBEFF7"/>
					<stop  offset="1" style="stop-color:#B3B6C2"/>
				</linearGradient>
				<path style="fill:url(#SVGID_00000044896640664152269480000001609613118637965487_);" d="M562.12,569.86
					c-9.28-1.16-19.92,5.69-24.93,18.88c-2.83,7.47-2.92,17.91-2.27,27.74c23.91,23.91,79.79,24.5,94.43,23.01
					c14.64-1.49,47.81-20.02,51.4-28.09C684.34,603.33,576.47,571.66,562.12,569.86z"/>
				
					<radialGradient id="SVGID_00000091733973289041201590000017653545664032966306_" cx="574.0432" cy="602.8481" r="18.9751" gradientUnits="userSpaceOnUse">
					<stop  offset="0" style="stop-color:#EBEFF7"/>
					<stop  offset="1" style="stop-color:#B3B6C2"/>
				</radialGradient>
				<circle style="fill:url(#SVGID_00000091733973289041201590000017653545664032966306_);" cx="574.04" cy="602.85" r="18.98"/>
				
					<radialGradient id="SVGID_00000041279465550442407860000002356687198556626561_" cx="617.2726" cy="613.2848" r="15.8375" gradientUnits="userSpaceOnUse">
					<stop  offset="0" style="stop-color:#EBEFF7"/>
					<stop  offset="1" style="stop-color:#B3B6C2"/>
				</radialGradient>
				<circle style="fill:url(#SVGID_00000041279465550442407860000002356687198556626561_);" cx="617.27" cy="613.28" r="15.84"/>
			</g>
			<g>
				
					<linearGradient id="SVGID_00000062152715620106872010000007786113552862568885_" gradientUnits="userSpaceOnUse" x1="384.7572" y1="638.7571" x2="384.1596" y2="578.7938" gradientTransform="matrix(-1 0 0 1 1457.8451 0)">
					<stop  offset="0" style="stop-color:#EBEFF7"/>
					<stop  offset="1" style="stop-color:#B3B6C2"/>
				</linearGradient>
				<path style="fill:url(#SVGID_00000062152715620106872010000007786113552862568885_);" d="M1118.98,569.86
					c9.28-1.16,19.92,5.69,24.93,18.88c2.83,7.47,2.92,17.91,2.27,27.74c-23.91,23.91-79.79,24.5-94.43,23.01
					c-14.64-1.49-47.81-20.02-51.4-28.09C996.76,603.33,1104.63,571.66,1118.98,569.86z"/>
				
					<radialGradient id="SVGID_00000128469622484486607240000013446536681480739237_" cx="350.7884" cy="602.8481" r="18.9751" gradientTransform="matrix(-1 0 0 1 1457.8451 0)" gradientUnits="userSpaceOnUse">
					<stop  offset="0" style="stop-color:#EBEFF7"/>
					<stop  offset="1" style="stop-color:#B3B6C2"/>
				</radialGradient>
				<circle style="fill:url(#SVGID_00000128469622484486607240000013446536681480739237_);" cx="1107.06" cy="602.85" r="18.98"/>
				
					<radialGradient id="SVGID_00000121267124822998086020000002947005187062001033_" cx="394.0178" cy="613.2848" r="15.8375" gradientTransform="matrix(-1 0 0 1 1457.8451 0)" gradientUnits="userSpaceOnUse">
					<stop  offset="0" style="stop-color:#EBEFF7"/>
					<stop  offset="1" style="stop-color:#B3B6C2"/>
				</radialGradient>
				<circle style="fill:url(#SVGID_00000121267124822998086020000002947005187062001033_);" cx="1063.83" cy="613.28" r="15.84"/>
			</g>
		</g>
		
			<linearGradient id="SVGID_00000025422893412438268140000012396268555686759858_" gradientUnits="userSpaceOnUse" x1="929.3148" y1="650.0963" x2="699.6574" y2="782.5266">
			<stop  offset="0" style="stop-color:#EBEFF7"/>
			<stop  offset="1" style="stop-color:#B3B6C2"/>
		</linearGradient>
		<path style="fill:url(#SVGID_00000025422893412438268140000012396268555686759858_);" d="M917.08,719.34H766.69
			c-0.28,0-0.51-0.23-0.51-0.51v-36.64c0-0.28,0.23-0.51,0.51-0.51h150.39c0.28,0,0.51,0.23,0.51,0.51v36.64
			C917.58,719.11,917.36,719.34,917.08,719.34z"/>
		
			<linearGradient id="SVGID_00000182525889688394863400000010742745344234641025_" gradientUnits="userSpaceOnUse" x1="840.5669" y1="632.5755" x2="840.5669" y2="645.7794">
			<stop  offset="0" style="stop-color:#EBEFF7"/>
			<stop  offset="1" style="stop-color:#B3B6C2"/>
		</linearGradient>
		<path style="fill:url(#SVGID_00000182525889688394863400000010742745344234641025_);" d="M854.34,654.49h-27.55
			c-6.03,0-10.93-4.89-10.93-10.93l0,0c0-6.03,4.89-10.93,10.93-10.93h27.55c6.03,0,10.93,4.89,10.93,10.93l0,0
			C865.27,649.6,860.38,654.49,854.34,654.49z"/>
		
			<linearGradient id="SVGID_00000033331839088856789560000011538522275511609242_" gradientUnits="userSpaceOnUse" x1="928.0251" y1="489.9375" x2="928.7694" y2="415.255">
			<stop  offset="0" style="stop-color:#2C3E63"/>
			<stop  offset="1" style="stop-color:#13192E"/>
		</linearGradient>
		<path style="display:none;fill:url(#SVGID_00000033331839088856789560000011538522275511609242_);" d="M1047.99,487.87
			c-21.59,2.98-58.86,6.41-100.71,2.52c-58.11-5.5-118.06-53.82-138.33-87.43c12.54-0.17,25.14-0.17,37.39-0.17
			c6.3,0,12.71,0,19.18,0.06c4.58,0,9.22,0,13.8,0.06c38.19,0.28,76.26,1.43,103.69,5.27c10.13,1.43,18.84,3.21,25.54,5.44
			c4.41,7.67,10.19,17.46,16.2,28.06c4.81,8.59,9.68,17.58,14.14,26.39C1042.32,474.93,1045.47,481.63,1047.99,487.87z"/>
		
			<linearGradient id="SVGID_00000098918228768797728330000015275006985600072631_" gradientUnits="userSpaceOnUse" x1="840.6995" y1="609.5265" x2="841.5312" y2="526.0645">
			<stop  offset="0" style="stop-color:#2C3E63"/>
			<stop  offset="1" style="stop-color:#000000"/>
		</linearGradient>
		<path style="display:none;fill:url(#SVGID_00000098918228768797728330000015275006985600072631_);" d="M601.44,515.14
			c-22.11,22.11-40.86,35.79-33.47,43.18c7.39,7.39,112.95,50.05,168.54,50.05c55.58,0,204.99,9.69,247.42-3.52
			c42.43-13.21,124.65-34.55,131.48-41.38c6.83-6.83-38.85-48.33-38.85-48.33H601.44z"/>
		
			<linearGradient id="SVGID_00000106864024068167529160000009429070022343330492_" gradientUnits="userSpaceOnUse" x1="1122.9061" y1="474.0515" x2="1122.9061" y2="499.1964">
			<stop  offset="0" style="stop-color:#2C3E63"/>
			<stop  offset="1" style="stop-color:#000000"/>
		</linearGradient>
		<path style="display:none;fill:url(#SVGID_00000106864024068167529160000009429070022343330492_);" d="M1118.4,503.19h9.02
			c8.2,0,14.85-6.65,14.85-14.85l0,0c0-8.2-6.65-14.85-14.85-14.85h-9.02c-8.2,0-14.85,6.65-14.85,14.85l0,0
			C1103.55,496.54,1110.2,503.19,1118.4,503.19z"/>
		
			<linearGradient id="SVGID_00000044158410498440969260000009682739089108275134_" gradientUnits="userSpaceOnUse" x1="558.5508" y1="474.0515" x2="558.5508" y2="499.1964">
			<stop  offset="0" style="stop-color:#2C3E63"/>
			<stop  offset="1" style="stop-color:#000000"/>
		</linearGradient>
		<path style="display:none;fill:url(#SVGID_00000044158410498440969260000009682739089108275134_);" d="M554.04,503.19h9.02
			c8.2,0,14.85-6.65,14.85-14.85l0,0c0-8.2-6.65-14.85-14.85-14.85h-9.02c-8.2,0-14.85,6.65-14.85,14.85l0,0
			C539.2,496.54,545.84,503.19,554.04,503.19z"/>
	</g>
	<g>
		<g>
			<path class="st5" d="M810.93,325.33c-0.76-0.38-1.48-0.89-2.11-1.53c-3.14-3.16-3.12-8.26,0.03-11.4
				c9.42-9.36,21.9-14.47,35.15-14.39c13.25,0.08,25.67,5.36,34.97,14.83c3.12,3.18,3.07,8.28-0.11,11.4
				c-3.18,3.11-8.27,3.08-11.4-0.11c-6.27-6.39-14.64-9.94-23.56-10c-8.92-0.06-17.33,3.39-23.68,9.7
				C817.7,326.34,813.94,326.84,810.93,325.33z"/>
		</g>
		<g>
			<path class="st5" d="M786.11,300.44c-0.76-0.38-1.47-0.89-2.11-1.52c-3.14-3.15-3.13-8.26,0.02-11.4
				c16.1-16.04,37.48-24.79,60.2-24.65c22.71,0.14,43.98,9.16,59.88,25.41c3.11,3.18,3.06,8.28-0.12,11.4
				c-3.18,3.11-8.28,3.07-11.4-0.12c-12.87-13.14-30.08-20.45-48.46-20.56c-18.38-0.12-35.68,6.97-48.72,19.95
				C792.88,301.45,789.12,301.95,786.11,300.44z"/>
		</g>
		<g>
			<path class="st5" d="M762.3,276.58c-0.76-0.38-1.47-0.89-2.11-1.52c-3.14-3.15-3.14-8.26,0.02-11.4
				c22.51-22.45,52.42-34.7,84.21-34.5c31.79,0.2,61.54,12.83,83.77,35.56c3.11,3.18,3.06,8.29-0.13,11.4
				c-3.18,3.11-8.29,3.05-11.4-0.13c-19.19-19.63-44.89-30.54-72.35-30.71c-27.46-0.17-53.29,10.41-72.73,29.8
				C769.08,277.59,765.32,278.09,762.3,276.58z"/>
		</g>
	</g>
	<g class="st37">
		<g class="st38">
			
				<radialGradient id="SVGID_00000005981480074103675110000009896705640877128070_" cx="617.2726" cy="613.2848" r="116.8125" gradientUnits="userSpaceOnUse">
				<stop  offset="0" style="stop-color:#F7E3BC"/>
				<stop  offset="0.1282" style="stop-color:#C7B797"/>
				<stop  offset="0.3037" style="stop-color:#8B806A"/>
				<stop  offset="0.4731" style="stop-color:#595244"/>
				<stop  offset="0.6317" style="stop-color:#332E26"/>
				<stop  offset="0.7769" style="stop-color:#171511"/>
				<stop  offset="0.9043" style="stop-color:#060505"/>
				<stop  offset="1" style="stop-color:#000000"/>
			</radialGradient>
			<circle style="fill:url(#SVGID_00000005981480074103675110000009896705640877128070_);" cx="617.27" cy="613.28" r="116.81"/>
			
				<radialGradient id="SVGID_00000002382661054516943040000014147825688954484882_" cx="617.2724" cy="613.2845" r="66.2109" gradientUnits="userSpaceOnUse">
				<stop  offset="0" style="stop-color:#F7E3BC"/>
				<stop  offset="0.1282" style="stop-color:#C7B797"/>
				<stop  offset="0.3037" style="stop-color:#8B806A"/>
				<stop  offset="0.4731" style="stop-color:#595244"/>
				<stop  offset="0.6317" style="stop-color:#332E26"/>
				<stop  offset="0.7769" style="stop-color:#171511"/>
				<stop  offset="0.9043" style="stop-color:#060505"/>
				<stop  offset="1" style="stop-color:#000000"/>
			</radialGradient>
			<circle style="fill:url(#SVGID_00000002382661054516943040000014147825688954484882_);" cx="617.27" cy="613.28" r="66.21"/>
		</g>
		<g class="st38">
			
				<radialGradient id="SVGID_00000163068222075071495690000017008336922849501833_" cx="1063.8273" cy="613.2848" r="116.8125" gradientUnits="userSpaceOnUse">
				<stop  offset="0" style="stop-color:#F7E3BC"/>
				<stop  offset="0.1282" style="stop-color:#C7B797"/>
				<stop  offset="0.3037" style="stop-color:#8B806A"/>
				<stop  offset="0.4731" style="stop-color:#595244"/>
				<stop  offset="0.6317" style="stop-color:#332E26"/>
				<stop  offset="0.7769" style="stop-color:#171511"/>
				<stop  offset="0.9043" style="stop-color:#060505"/>
				<stop  offset="1" style="stop-color:#000000"/>
			</radialGradient>
			<circle style="fill:url(#SVGID_00000163068222075071495690000017008336922849501833_);" cx="1063.83" cy="613.28" r="116.81"/>
			
				<radialGradient id="SVGID_00000100356103620708756650000006629576916824996274_" cx="1063.8273" cy="613.2845" r="66.2108" gradientUnits="userSpaceOnUse">
				<stop  offset="0" style="stop-color:#F7E3BC"/>
				<stop  offset="0.1282" style="stop-color:#C7B797"/>
				<stop  offset="0.3037" style="stop-color:#8B806A"/>
				<stop  offset="0.4731" style="stop-color:#595244"/>
				<stop  offset="0.6317" style="stop-color:#332E26"/>
				<stop  offset="0.7769" style="stop-color:#171511"/>
				<stop  offset="0.9043" style="stop-color:#060505"/>
				<stop  offset="1" style="stop-color:#000000"/>
			</radialGradient>
			<circle style="fill:url(#SVGID_00000100356103620708756650000006629576916824996274_);" cx="1063.83" cy="613.28" r="66.21"/>
		</g>
	</g>
</g>
</svg>
